<?xml version="1.0" encoding="utf-8" ?>
<svg width="304.8mm" height="406.4mm" viewBox="0,0,304.8,406.4" baseProfile="tiny" version="1.2" xmlns="http://www.w3.org/2000/svg" xmlns:ev="http://www.w3.org/2001/xml-events" xmlns:xlink="http://www.w3.org/1999/xlink" ><defs/><g id="Body" fill="none" stroke="black" stroke-width="0.2"><path d="M12.5 10.0 L12.46403977586927 10.422502050804622 L12.357193613652711 10.832849486855144 L12.18253528290297 11.219237359534086 L11.945089385796098 11.570549993239105 L11.651686808475203 11.87668076313181 L11.31076820889308 12.128822844333278 L10.932141194450772 12.319722568241273 L10.526698174989317 12.443888097369214 L10.10610300799037 12.497747415511704 L9.682455450632803 12.479751088147193 L9.267943071808624 12.390416836848127 L8.874490637955816 12.232314645373922 L8.513417059239284 12.009992825917351 L8.195109765113688 11.729847172443865 L7.928725876890394 11.399936965343988 L7.721928774029661 11.029753120609982 L7.580667632666253 10.629945153462813 L7.5090062786436835 10.212014811188773 L7.5090062786436835 9.787985188811225 L7.580667632666254 9.370054846537187 L7.721928774029661 8.970246879390018 L7.928725876890395 8.60006303465601 L8.195109765113688 8.270152827556133 L8.513417059239284 7.990007174082648 L8.874490637955816 7.767685354626079 L9.267943071808624 7.609583163151873 L9.682455450632805 7.520248911852807 L10.10610300799037 7.502252584488296 L10.526698174989313 7.556111902630784 L10.932141194450773 7.680277431758727 L11.310768208893082 7.871177155666723 L11.651686808475203 8.123319236868188 L11.945089385796098 8.429450006760895 L12.182535282902972 8.780762640465914 L12.357193613652711 9.167150513144858 L12.46403977586927 9.577497949195378 L12.5 10.0" fill="none" stroke="black" stroke-width="0.2" />
<path d="M5.0 10.0 L15.0 10.0" fill="none" stroke="black" stroke-width="0.2" />
<path d="M10.0 5.0 L10.0 15.0" fill="none" stroke="black" stroke-width="0.2" />
<path d="M12.5 385.1 L12.46403977586927 385.52250205080463 L12.357193613652711 385.93284948685516 L12.18253528290297 386.3192373595341 L11.945089385796098 386.67054999323915 L11.651686808475203 386.9766807631318 L11.31076820889308 387.2288228443333 L10.932141194450772 387.4197225682413 L10.526698174989317 387.54388809736923 L10.10610300799037 387.5977474155117 L9.682455450632803 387.5797510881472 L9.267943071808624 387.49041683684817 L8.874490637955816 387.33231464537397 L8.513417059239284 387.1099928259174 L8.195109765113688 386.82984717244386 L7.928725876890394 386.49993696534403 L7.721928774029661 386.12975312061 L7.580667632666253 385.72994515346284 L7.5090062786436835 385.3120148111888 L7.5090062786436835 384.88798518881123 L7.580667632666254 384.4700548465372 L7.721928774029661 384.07024687939 L7.928725876890395 383.700063034656 L8.195109765113688 383.3701528275562 L8.513417059239284 383.09000717408264 L8.874490637955816 382.8676853546261 L9.267943071808624 382.7095831631519 L9.682455450632805 382.62024891185285 L10.10610300799037 382.6022525844883 L10.526698174989313 382.6561119026308 L10.932141194450773 382.78027743175875 L11.310768208893082 382.97117715566674 L11.651686808475203 383.22331923686824 L11.945089385796098 383.5294500067609 L12.182535282902972 383.88076264046595 L12.357193613652711 384.2671505131449 L12.46403977586927 384.6774979491954 L12.5 385.1" fill="none" stroke="black" stroke-width="0.2" />
<path d="M5.0 385.1 L15.0 385.1" fill="none" stroke="black" stroke-width="0.2" />
<path d="M10.0 380.1 L10.0 390.1" fill="none" stroke="black" stroke-width="0.2" />
<path d="M293.55 385.1 L293.51403977586926 385.52250205080463 L293.40719361365274 385.93284948685516 L293.232535282903 386.3192373595341 L292.9950893857961 386.67054999323915 L292.7016868084752 386.9766807631318 L292.3607682088931 387.2288228443333 L291.9821411944508 387.4197225682413 L291.5766981749893 387.54388809736923 L291.1561030079904 387.5977474155117 L290.7324554506328 387.5797510881472 L290.31794307180866 387.49041683684817 L289.92449063795584 387.33231464537397 L289.56341705923927 387.1099928259174 L289.2451097651137 386.82984717244386 L288.9787258768904 386.49993696534403 L288.7719287740297 386.12975312061 L288.63066763266625 385.72994515346284 L288.5590062786437 385.3120148111888 L288.5590062786437 384.88798518881123 L288.63066763266625 384.4700548465372 L288.7719287740297 384.07024687939 L288.9787258768904 383.700063034656 L289.2451097651137 383.3701528275562 L289.56341705923927 383.09000717408264 L289.92449063795584 382.8676853546261 L290.31794307180866 382.7095831631519 L290.7324554506328 382.62024891185285 L291.1561030079904 382.6022525844883 L291.5766981749893 382.6561119026308 L291.9821411944508 382.78027743175875 L292.3607682088931 382.97117715566674 L292.7016868084752 383.22331923686824 L292.9950893857961 383.5294500067609 L293.232535282903 383.88076264046595 L293.40719361365274 384.2671505131449 L293.51403977586926 384.6774979491954 L293.55 385.1" fill="none" stroke="black" stroke-width="0.2" />
<path d="M286.05 385.1 L296.05 385.1" fill="none" stroke="black" stroke-width="0.2" />
<path d="M291.05 380.1 L291.05 390.1" fill="none" stroke="black" stroke-width="0.2" />
<path d="M293.55 10.0 L293.51403977586926 10.422502050804622 L293.40719361365274 10.832849486855144 L293.232535282903 11.219237359534086 L292.9950893857961 11.570549993239105 L292.7016868084752 11.87668076313181 L292.3607682088931 12.128822844333278 L291.9821411944508 12.319722568241273 L291.5766981749893 12.443888097369214 L291.1561030079904 12.497747415511704 L290.7324554506328 12.479751088147193 L290.31794307180866 12.390416836848127 L289.92449063795584 12.232314645373922 L289.56341705923927 12.009992825917351 L289.2451097651137 11.729847172443865 L288.9787258768904 11.399936965343988 L288.7719287740297 11.029753120609982 L288.63066763266625 10.629945153462813 L288.5590062786437 10.212014811188773 L288.5590062786437 9.787985188811225 L288.63066763266625 9.370054846537187 L288.7719287740297 8.970246879390018 L288.9787258768904 8.60006303465601 L289.2451097651137 8.270152827556133 L289.56341705923927 7.990007174082648 L289.92449063795584 7.767685354626079 L290.31794307180866 7.609583163151873 L290.7324554506328 7.520248911852807 L291.1561030079904 7.502252584488296 L291.5766981749893 7.556111902630784 L291.9821411944508 7.680277431758727 L292.3607682088931 7.871177155666723 L292.7016868084752 8.123319236868188 L292.9950893857961 8.429450006760895 L293.232535282903 8.780762640465914 L293.40719361365274 9.167150513144858 L293.51403977586926 9.577497949195378 L293.55 10.0" fill="none" stroke="black" stroke-width="0.2" />
<path d="M286.05 10.0 L296.05 10.0" fill="none" stroke="black" stroke-width="0.2" />
<path d="M291.05 5.0 L291.05 15.0" fill="none" stroke="black" stroke-width="0.2" />
<path d="M127.7 300.40000000000003 L132.65 303.15000000000003 L127.7 300.95000000000005M122.75000000000001 294.35 L122.2 293.8M122.75000000000001 288.3 L122.75000000000001 287.75M102.4 251.45000000000002 L108.45 263.0 L121.10000000000001 270.70000000000005 L135.4 262.45000000000005 L153.0 261.90000000000003 L135.4 262.45000000000005 L121.10000000000001 270.70000000000005 L116.15 269.6 L108.45 263.0 L102.4 251.45000000000002 L119.45 237.70000000000002 L160.70000000000002 237.15 L182.70000000000002 247.05 L168.95000000000002 239.9 L175.0 234.4 L179.4 236.05 L172.8 234.4 L166.20000000000002 237.15 L156.3 232.75000000000003 L138.15 231.10000000000002 L118.35000000000001 238.25000000000003 L116.7 234.95000000000002 L122.2 228.9 L104.05000000000001 249.8M101.85000000000001 233.3 L101.85000000000001 232.75000000000003M109.00000000000001 232.75000000000003 L106.25000000000001 233.3 L110.65 232.75000000000003M115.60000000000001 236.05 L104.60000000000001 249.25000000000003 L118.35000000000001 238.25000000000003 L116.7 236.05M123.30000000000001 237.15 L125.50000000000001 233.85000000000002 L138.15 231.10000000000002 L160.70000000000002 234.95000000000002 L160.15 237.15 L123.85000000000001 237.70000000000002M100.2 223.4 L100.2 218.45000000000002M118.35000000000001 203.05 L111.2 205.8 L120.55000000000001 203.05M125.50000000000001 204.70000000000002 L138.15 208.55 L154.10000000000002 208.55 L151.35000000000002 216.25000000000003 L144.20000000000002 217.35000000000002 L133.75 212.95000000000002 L133.20000000000002 209.65 L130.45 212.95000000000002 L125.50000000000001 208.00000000000003M153.55 212.95000000000002 L154.65 206.35000000000002 L167.85000000000002 207.45000000000002 L164.0 215.70000000000002 L158.5 214.60000000000002 L158.5 211.3 L154.10000000000002 213.50000000000003M157.4 212.95000000000002 L146.4 216.25000000000003 L146.4 221.20000000000002 L151.35000000000002 222.85000000000002 L157.95000000000002 213.50000000000003M160.70000000000002 235.50000000000003 L163.45000000000002 237.70000000000002 L160.70000000000002 237.15M163.45000000000002 236.60000000000002 L166.20000000000002 237.15 L163.45000000000002 237.70000000000002M166.20000000000002 237.70000000000002 L168.95000000000002 239.35000000000002 L167.3 236.60000000000002M159.05 242.10000000000002 L157.95000000000002 243.20000000000002M171.15 247.05 L164.0 247.60000000000002 L173.35000000000002 247.05M183.8 249.8 L183.8 250.35000000000002M188.20000000000002 254.20000000000002 L186.0 264.1 L191.50000000000003 254.20000000000002M207.45000000000002 253.65 L210.75000000000003 253.10000000000002 L209.65 255.85000000000002M209.65 255.85000000000002 L202.50000000000003 275.65000000000003 L171.70000000000002 301.5 L142.55 303.15000000000003 L126.05000000000001 293.8 L128.25 291.6 L170.05 293.8 L176.10000000000002 288.3 L174.45000000000002 286.1 L208.00000000000003 254.20000000000002M207.45000000000002 264.65000000000003 L210.20000000000002 277.85 L208.55 291.05 L205.25000000000003 287.75 L204.70000000000002 275.1 L202.50000000000003 275.1 L206.9 265.20000000000005M203.05 276.20000000000005 L208.00000000000003 291.05 L207.45000000000002 302.6 L192.05 319.65000000000003 L181.60000000000002 325.70000000000005 L183.25 319.1 L178.3 296.55 L201.4 276.20000000000005M188.20000000000002 281.70000000000005 L178.3 289.95000000000005 L187.65 281.70000000000005M215.15 180.5 L203.60000000000002 190.4 L194.25000000000003 215.15 L191.50000000000003 258.05 L184.35000000000002 267.40000000000003 L170.05 274.0 L168.4 285.55 L176.65 284.45000000000005 L211.3 251.45000000000002 L216.8 180.5M201.4 170.60000000000002 L192.60000000000002 175.55 L200.3 169.5M191.50000000000003 159.05 L194.25000000000003 160.70000000000002 L193.15 157.4M191.50000000000003 156.3 L191.50000000000003 159.05 L173.35000000000002 156.85000000000002 L162.9 163.45000000000002 L160.15 162.35000000000002 L164.55 168.95000000000002 L165.65 189.85000000000002 L159.05 200.85000000000002 L162.9 197.55 L167.3 206.35000000000002 L155.20000000000002 206.35000000000002 L154.65 159.60000000000002 L171.70000000000002 148.05 L190.95000000000002 156.3M179.95000000000002 145.85000000000002 L179.4 145.85000000000002M162.35000000000002 166.75 L163.45000000000002 162.9 L173.35000000000002 156.85000000000002 L193.70000000000002 160.70000000000002 L191.50000000000003 164.0 L175.0 161.25 L164.0 168.4M175.55 173.35000000000002 L176.65 173.35000000000002M208.55 141.45000000000002 L206.35000000000002 154.10000000000002 L196.45000000000002 160.70000000000002 L203.60000000000002 166.20000000000002 L193.70000000000002 160.70000000000002 L192.05 164.0 L196.45000000000002 166.75 L189.85000000000002 165.10000000000002 L189.85000000000002 176.65 L198.65 169.5 L203.60000000000002 171.15 L210.20000000000002 166.75 L212.95000000000002 157.95000000000002 L209.10000000000002 141.45000000000002M217.9 148.60000000000002 L217.9 149.70000000000002M217.35000000000002 155.75 L221.20000000000002 168.4 L217.9 181.05 L212.95000000000002 159.05 L216.8 156.3M226.15 143.65 L230.00000000000003 144.75 L228.9 140.9 L226.15 141.45000000000002M230.55 143.65 L231.10000000000002 144.20000000000002M229.45000000000002 135.4 L227.25000000000003 140.9 L228.35000000000002 135.4M230.55 129.9 L229.45000000000002 143.65 L232.20000000000002 144.75 L233.85000000000002 129.9 L231.65 128.8M231.10000000000002 122.75000000000001 L232.20000000000002 127.7 L233.85000000000002 123.30000000000001 L231.65 122.2M227.8 112.85000000000001 L227.25000000000003 112.30000000000001M229.45000000000002 111.75000000000001 L227.25000000000003 113.4 L228.9 132.65 L232.20000000000002 128.25 L230.00000000000003 111.75000000000001M210.75000000000003 113.95 L216.8 117.80000000000001 L221.75000000000003 127.7 L220.65 141.45000000000002 L212.95000000000002 145.85000000000002 L209.10000000000002 141.45000000000002 L210.75000000000003 129.35000000000002 L217.9 126.60000000000001 L208.00000000000003 128.8 L209.65 115.05000000000001M210.20000000000002 129.35000000000002 L209.10000000000002 136.5 L208.55 129.35000000000002M232.20000000000002 160.15 L220.10000000000002 164.55 L221.75000000000003 168.4 L231.65 164.0 L220.65 169.5 L221.20000000000002 175.55 L236.60000000000002 170.05 L237.15 165.10000000000002M236.05 169.5 L232.75000000000003 195.35000000000002 L222.85000000000002 211.85000000000002 L215.15 214.05 L217.35000000000002 181.60000000000002 L221.75000000000003 175.55 L234.4 169.5M184.9 95.80000000000001 L181.60000000000002 92.5M183.25 78.75 L180.5 88.10000000000001 L175.55 93.05000000000001 L163.45000000000002 96.9 L167.3 96.35000000000001 L171.15 89.2 L173.35000000000002 70.5 L161.25 62.25000000000001 L154.10000000000002 62.25000000000001 L144.75 69.4 L147.5 90.30000000000001 L143.65 69.95 L104.05000000000001 101.30000000000001 L154.10000000000002 62.25000000000001 L161.25 62.25000000000001 L173.35000000000002 70.5 L168.95000000000002 95.80000000000001 L180.5 88.10000000000001 L183.25 78.2M187.10000000000002 79.30000000000001 L188.75000000000003 105.7 L179.4 95.80000000000001 L187.65 102.4 L187.65 78.75M178.3 71.05000000000001 L189.3 74.9 L177.75 70.5M166.20000000000002 54.0 L199.75000000000003 74.35000000000001 L205.25000000000003 85.35000000000001 L199.75000000000003 74.35000000000001 L164.0 54.0M165.10000000000002 49.050000000000004 L206.9 73.25 L222.85000000000002 90.30000000000001 L233.85000000000002 123.30000000000001 L233.85000000000002 142.55 L230.00000000000003 159.05 L237.15 165.10000000000002 L236.05 179.95000000000002 L232.75000000000003 195.35000000000002 L222.85000000000002 211.85000000000002 L214.05 216.8 L212.4 248.70000000000002 L208.00000000000003 262.45000000000005 L210.20000000000002 288.85 L205.8 305.90000000000003 L192.05 319.65000000000003 L179.4 327.35 L127.15 332.3 L111.2 327.35 L95.25 316.90000000000003 L91.95 267.40000000000003 L80.95 248.15 L76.0 212.4 L65.55000000000001 208.00000000000003 L58.95 187.10000000000002 L56.75000000000001 161.25 L67.2 153.55 L57.85 135.4 L56.75000000000001 127.15 L89.2 67.2 L132.65 47.95 L164.0 47.95M156.85000000000002 52.900000000000006 L156.3 52.900000000000006M144.75 52.900000000000006 L144.20000000000002 52.35M145.85000000000002 62.800000000000004 L145.3 63.35M139.25 65.55000000000001 L132.10000000000002 68.30000000000001 L115.05000000000001 67.2 L117.25000000000001 58.95 L106.80000000000001 93.05000000000001 L109.55000000000001 91.4 L107.9 88.65 L114.50000000000001 67.2 L131.0 68.30000000000001 L119.45 85.9 L111.75000000000001 90.30000000000001 L119.45 85.9 L131.0 68.30000000000001 L138.15 65.55000000000001M130.45 93.05000000000001 L130.45 93.60000000000001M139.8 95.25 L153.55 95.25 L143.10000000000002 95.25 L143.65 89.2 L142.0 95.25M157.95000000000002 96.35000000000001 L159.05 96.35000000000001M124.95 133.75 L124.95 134.3M124.4 145.85000000000002 L103.50000000000001 153.0 L105.15 155.20000000000002 L122.2 153.0 L124.95 146.4M126.05000000000001 163.45000000000002 L117.80000000000001 157.4 L104.05000000000001 159.05 L94.7 162.9 L93.05000000000001 166.75 L104.60000000000001 172.8 L124.95 169.5 L128.25 165.65M128.8 167.85000000000002 L104.05000000000001 173.35000000000002 L113.95 175.55 L127.7 172.25 L129.35000000000002 168.4M103.50000000000001 159.60000000000002 L94.15 162.35000000000002 L100.75000000000001 156.85000000000002M101.30000000000001 156.85000000000002 L117.80000000000001 152.45000000000002 L122.75000000000001 153.0 L132.65 161.25 L141.45000000000002 155.75 L153.55 156.85000000000002 L154.65 206.35000000000002 L136.5 206.35000000000002 L140.9 176.65 L139.8 160.15 L140.9 176.65 L137.05 205.25000000000003 L132.10000000000002 205.8 L126.05000000000001 204.15 L129.9 194.25000000000003 L134.3 198.10000000000002 L128.25 189.85000000000002 L128.25 165.65 L120.00000000000001 157.4 L103.50000000000001 159.60000000000002 L101.30000000000001 157.4M101.30000000000001 155.20000000000002 L104.60000000000001 154.10000000000002 L101.30000000000001 153.55M98.55000000000001 155.20000000000002 L101.85000000000001 155.75 L98.55000000000001 156.3M93.05000000000001 160.70000000000002 L93.60000000000001 164.0 L91.95 161.8M80.95 176.65 L93.05000000000001 184.9 L99.65 211.3 L93.05000000000001 184.9 L81.5 177.20000000000002M76.55000000000001 185.45000000000002 L77.10000000000001 192.05 L75.45 186.55M79.30000000000001 206.9 L79.30000000000001 207.45000000000002M61.150000000000006 163.45000000000002 L71.05000000000001 164.55 L69.95 160.15 L61.150000000000006 161.25M71.05000000000001 155.75 L67.2 153.55 L56.75000000000001 162.9 L70.5 160.70000000000002 L71.60000000000001 156.3M74.35000000000001 150.25 L69.95 165.65 L73.80000000000001 173.9 L68.85 165.10000000000002 L57.300000000000004 163.45000000000002 L56.75000000000001 168.95000000000002 L65.55000000000001 208.00000000000003 L74.35000000000001 211.3 L78.2 174.45000000000002 L74.9 149.70000000000002M75.45 149.15 L76.0 155.20000000000002 L78.75 152.45000000000002 L76.0 156.85000000000002 L78.75 190.4 L74.9 211.3 L80.95 248.15 L92.5 270.15000000000003 L124.95 293.8 L128.25 291.6 L172.25 292.70000000000005 L175.0 287.75 L172.25 285.55 L117.80000000000001 283.35 L90.30000000000001 258.6 L117.80000000000001 283.35 L166.75 285.55 L170.05 274.0 L184.35000000000002 267.40000000000003 L185.45000000000002 263.55 L153.55 254.75000000000003 L132.65 254.75000000000003 L112.30000000000001 259.70000000000005 L120.00000000000001 258.05 L136.5 247.05 L158.5 247.05 L171.15 256.95000000000005 L158.5 248.15 L139.8 246.50000000000003 L120.55000000000001 257.5 L153.55 254.75000000000003 L183.8 263.55 L187.10000000000002 255.3 L192.05 253.65 L194.25000000000003 215.15 L201.95000000000002 193.70000000000002 L216.25000000000003 179.95000000000002 L215.15 161.25 L212.95000000000002 159.60000000000002 L208.00000000000003 168.95000000000002 L190.4 176.10000000000002 L186.0 181.60000000000002 L187.10000000000002 177.75 L177.20000000000002 176.10000000000002 L189.85000000000002 176.65 L189.85000000000002 163.45000000000002 L175.0 161.25 L164.55 168.95000000000002 L165.65 189.85000000000002 L162.9 197.55 L167.85000000000002 210.20000000000002 L164.0 215.70000000000002 L159.05 214.60000000000002 L151.9 222.3 L153.0 227.25000000000003 L150.8 222.3 L140.9 221.75000000000003 L146.95000000000002 221.75000000000003 L144.75 217.35000000000002 L130.45 212.95000000000002 L126.05000000000001 208.55 L113.95 221.20000000000002 L125.50000000000001 208.55 L129.35000000000002 195.35000000000002 L129.35000000000002 172.25 L105.7 175.55 L92.5 165.10000000000002 L87.0 164.55 L81.5 148.60000000000002 L76.55000000000001 148.05M93.60000000000001 140.9 L94.15 146.95000000000002 L93.60000000000001 132.65M75.45 114.50000000000001 L83.7 121.10000000000001 L78.75 113.4 L75.45 113.4M73.25 112.85000000000001 L82.60000000000001 122.2 L82.05000000000001 142.55 L74.9 140.9 L72.15 135.4 L68.85 121.65 L72.7 113.4M83.15 97.45 L77.65 107.9 L83.15 96.9M87.0 90.30000000000001 L85.35000000000001 94.15 L87.55000000000001 89.75M100.2 94.7 L86.45 116.7 L101.85000000000001 93.05000000000001M103.50000000000001 98.55000000000001 L103.50000000000001 99.65M98.0 68.85 L90.85000000000001 82.60000000000001 L92.5 94.15 L85.9 104.60000000000001 L93.05000000000001 92.5 L89.75 84.80000000000001 L93.60000000000001 73.80000000000001 L100.2 66.65M56.75000000000001 127.15 L88.10000000000001 68.30000000000001 L132.65 47.95 L164.0 47.95 L212.95000000000002 78.75 L209.10000000000002 91.95 L193.15 88.10000000000001 L205.25000000000003 92.5 L201.4 105.15 L208.00000000000003 116.15 L209.10000000000002 137.05 L206.35000000000002 154.10000000000002 L196.45000000000002 160.70000000000002 L172.8 146.4 L155.75 158.5 L141.45000000000002 155.75 L131.0 160.15 L122.75000000000001 153.0 L124.4 148.05 L128.8 147.5 L136.5 153.55 L122.2 145.85000000000002 L99.65 154.10000000000002 L91.95 161.8 L92.5 165.10000000000002 L84.25 161.25 L83.7 156.85000000000002 L92.5 150.8 L121.65 141.45000000000002 L172.25 143.10000000000002 L168.95000000000002 101.85000000000001 L172.25 143.10000000000002 L124.95 140.9 L104.05000000000001 146.4 L83.7 156.3 L81.5 150.8 L83.7 118.9 L78.75 113.4 L72.15 113.4 L69.4 118.9 L73.80000000000001 140.35000000000002 L67.2 146.95000000000002 L74.35000000000001 140.35000000000002 L82.60000000000001 143.10000000000002 L81.5 148.60000000000002 L76.55000000000001 148.05 L71.05000000000001 154.65 L67.2 153.55 L56.75000000000001 132.10000000000002M92.5 271.25 L95.25 270.70000000000005 L124.4 293.25 L125.50000000000001 297.65000000000003 L126.05000000000001 293.8 L137.60000000000002 302.05 L167.3 302.6 L178.3 298.20000000000005 L181.60000000000002 325.70000000000005 L140.35000000000002 332.3 L119.45 330.65000000000003 L95.25 316.90000000000003 L92.5 294.90000000000003M209.10000000000002 91.95 L204.70000000000002 93.05000000000001 L203.60000000000002 100.2 L208.55 98.55000000000001 L209.65 91.4M215.70000000000002 85.35000000000001 L218.45000000000002 83.7 L215.70000000000002 83.15M218.45000000000002 84.80000000000001 L230.00000000000003 109.00000000000001 L227.25000000000003 112.30000000000001 L228.9 134.85000000000002 L225.05 145.3 L227.8 150.8 L227.8 145.3 L232.75000000000003 145.85000000000002 L230.55 158.5 L220.65 164.0 L219.55 153.0 L219.00000000000003 156.3 L212.95000000000002 157.95000000000002 L210.75000000000003 147.5 L220.65 141.45000000000002 L221.75000000000003 127.7 L214.05 115.05000000000001 L217.35000000000002 85.9M214.60000000000002 79.85000000000001 L216.8 89.75 L215.15 111.75000000000001 L211.3 113.95 L205.8 104.05000000000001 L210.75000000000003 111.75000000000001 L207.45000000000002 115.60000000000001 L201.4 102.95 L209.10000000000002 97.45 L212.95000000000002 79.85000000000001" fill="none" stroke="black" stroke-width="0.2" />
</g></svg>